<?xml version="1.0" standalone="no"?><!DOCTYPE svg PUBLIC "-//W3C//DTD SVG 1.1//EN" "http://www.w3.org/Graphics/SVG/1.1/DTD/svg11.dtd" ><svg xmlns="http://www.w3.org/2000/svg"><metadata>Generated by Glyphter</metadata><defs><font id="poolloop" horiz-adv-x="0"><font-face units-per-em="1024" ascent="1024" descent="0" font-family="poolloop" font-weight="normal" /><missing-glyph horiz-adv-x="0" /><glyph unicode="&#x0041;" d="M1014.592,795.789C1014.592,795.789,923.74,886.64,923.74,886.64C911.164,899.217,890.907,899.217,878.33,886.64C878.33,886.64,413.832,396.253,413.832,396.253C413.832,396.253,147.582,662.631,147.582,662.631C134.877,675.336,114.268,675.336,101.564,662.631C101.564,662.631,9.528,570.532,9.528,570.532C-3.176,557.859,-3.176,537.25,9.528,524.514C9.528,524.514,388.199,137.043,388.199,137.043C395.527,129.683,405.48,127.154,415.048,128.402C424.937,126.93,435.241,129.427,442.825,137.043C442.825,137.043,1014.592,750.347,1014.592,750.347C1027.136,762.891,1027.136,783.244,1014.592,795.789C1014.592,795.789,1014.592,795.789,1014.592,795.789" /><glyph unicode="&#x0042;" d="M591.045,688.431C591.045,688.431,750.722,688.431,750.722,688.431C750.722,688.431,732.071,511.983,732.071,511.983C732.071,511.983,591.01,511.983,591.01,511.983C591.01,511.983,591.01,0,591.01,0C591.01,0,379.139,0,379.139,0C379.139,0,379.139,511.983,379.139,511.983C379.139,511.983,273.5,511.983,273.5,511.983C273.5,511.983,273.5,688.431,273.5,688.431C273.5,688.431,379.139,688.431,379.139,688.431C379.139,688.431,379.139,794.697,379.139,794.697C379.139,870.099,396.955,927.164,432.586,965.891C468.216,1004.619,526.847,1024,608.443,1024C608.443,1024,749.504,1024,749.504,1024C749.504,1024,749.504,847.551,749.504,847.551C749.504,847.551,661.262,847.551,661.262,847.551C645.117,847.551,632.173,846.194,622.43,843.515C612.688,840.836,605.659,835.965,601.309,828.901C596.96,821.838,594.176,814.704,592.924,807.467C591.671,800.229,591.045,789.965,591.045,776.708C591.045,776.708,591.045,688.466,591.045,688.466C591.045,688.466,591.045,688.431,591.045,688.431" /><glyph unicode="&#x0043;" d="M539.585,201.244C539.585,209.859,538.655,218.163,536.828,226.158C535.002,234.153,533.038,241.527,530.97,248.316C528.903,255.104,525.319,262.168,520.184,269.543C515.05,276.917,510.743,283.189,507.262,288.323C503.782,293.458,498.337,299.522,490.963,306.483C483.588,313.444,477.937,318.682,474.043,322.162C470.149,325.643,463.567,330.881,454.367,337.841C445.166,344.802,438.791,349.523,435.276,352.004C431.761,354.485,425.007,359.206,414.979,366.167C404.952,373.128,398.715,377.435,396.199,379.09C389.204,379.917,378.969,380.33,365.427,380.33C343.269,380.33,321.525,378.883,300.195,376.023C278.864,373.162,256.707,368.028,233.722,360.654C210.738,353.279,190.648,343.837,173.418,332.362C156.188,320.887,142.025,305.484,130.964,286.221C119.902,266.958,114.354,245.007,114.354,220.369C114.354,192.491,121.625,167.542,136.202,145.592C150.778,123.641,169.834,106.411,193.439,93.902C217.044,81.393,241.751,72.055,267.596,65.887C293.441,59.718,319.492,56.617,345.75,56.652C369.975,56.652,393.029,59.202,414.979,64.336C436.93,69.47,457.537,77.465,476.834,88.32C496.132,99.175,511.397,114.268,522.666,133.565C533.934,152.863,539.551,175.434,539.585,201.244C539.585,201.244,539.585,201.244,539.585,201.244M465.738,731.68C465.738,756.284,462.361,782.439,455.573,810.144C448.784,837.85,439.17,864.625,426.661,890.435C414.152,916.245,396.923,937.575,374.972,954.426C353.021,971.277,328.486,979.685,301.435,979.651C263.289,979.651,233.757,965.488,212.84,937.196C191.923,908.905,181.482,875.066,181.447,835.679C181.447,816.416,183.79,796.085,188.511,774.754C193.232,753.424,200.503,732.093,210.359,710.763C220.214,689.432,231.689,670.273,244.818,653.215C257.947,636.158,273.937,622.339,292.82,611.691C311.704,601.043,331.587,595.737,352.504,595.702C392.305,595.702,421.113,608.108,438.963,632.919C456.813,657.729,465.738,690.638,465.738,731.68C465.738,731.68,465.738,731.68,465.738,731.68M385.138,1023.966C385.138,1023.966,654.06,1023.966,654.06,1023.966C654.06,1023.966,570.978,975.343,570.978,975.343C570.978,975.343,487.896,975.343,487.896,975.343C517.014,956.873,539.585,931.028,555.574,897.809C571.564,864.59,579.558,829.924,579.558,793.81C579.558,763.451,574.837,736.504,565.395,712.899C555.953,689.294,544.478,670.342,530.936,655.972C517.393,641.602,503.851,628.37,490.308,616.275C476.765,604.179,465.256,591.67,455.848,578.748C446.441,565.826,441.72,552.008,441.686,537.224C441.686,526.576,445.063,516.101,451.851,505.832C458.64,495.563,467.461,485.707,478.316,476.3C489.171,466.892,501.197,457.037,514.326,446.768C527.455,436.499,540.585,425.127,553.714,412.619C566.843,400.11,578.835,386.567,589.724,371.991C600.613,357.414,609.435,339.978,616.189,319.681C622.943,299.385,626.32,277.537,626.354,254.139C626.354,188.494,597.65,130.671,540.205,80.601C477.868,26.878,391.719,0,281.759,0C257.534,0,233.033,2.068,208.222,6.168C183.411,10.269,158.394,17.161,133.135,26.775C107.876,36.389,85.615,48.312,66.352,62.475C47.089,76.638,31.272,94.902,18.97,117.231C6.668,139.561,0.5,164.475,0.5,192.009C0.5,217.026,8.081,244.732,23.278,275.091C36.407,301.349,56.083,324.023,82.341,343.079C108.6,362.135,138.338,376.712,171.557,386.774C204.776,396.836,236.582,404.211,266.941,408.931C297.3,413.652,328.072,416.409,359.258,417.236C333,451.282,319.871,481.848,319.871,508.933C319.871,513.861,320.285,518.685,321.112,523.406C321.939,528.127,322.972,532.124,324.179,535.398C325.385,538.672,327.039,543.083,329.106,548.631C331.174,554.178,332.621,558.589,333.414,561.863C317.011,559.83,302.641,558.796,290.339,558.796C229.208,558.796,176.795,578.886,133.1,619.1C89.406,659.315,67.558,709.763,67.558,770.481C67.558,827.925,87.028,879.304,126.002,924.619C164.975,969.933,212.978,998.982,270.008,1011.698C308.568,1019.899,346.922,1024,385.069,1024C385.069,1024,385.138,1023.966,385.138,1023.966M1024.466,866.451C1024.466,866.451,1024.466,787.676,1024.466,787.676C1024.466,787.676,866.951,787.676,866.951,787.676C866.951,787.676,866.951,630.162,866.951,630.162C866.951,630.162,788.176,630.162,788.176,630.162C788.176,630.162,788.176,787.676,788.176,787.676C788.176,787.676,630.662,787.676,630.662,787.676C630.662,787.676,630.662,866.451,630.662,866.451C630.662,866.451,788.176,866.451,788.176,866.451C788.176,866.451,788.176,1023.966,788.176,1023.966C788.176,1023.966,866.951,1023.966,866.951,1023.966C866.951,1023.966,866.951,866.451,866.951,866.451C866.951,866.451,1024.466,866.451,1024.466,866.451C1024.466,866.451,1024.466,866.451,1024.466,866.451" /><glyph unicode="&#x0044;" d="M404.981,1024C404.981,1024,550.989,1024,550.989,1024C550.989,1024,550.989,765.321,550.989,765.321C550.989,765.321,793.652,765.321,793.652,765.321C793.652,765.321,793.652,604.641,793.652,604.641C793.652,604.641,550.989,604.641,550.989,604.641C550.989,604.641,550.989,341.968,550.989,341.968C550.989,281.526,554.088,243.298,560.322,227.319C566.109,210.855,577.645,197.528,595.004,187.336C617.217,173.56,643.238,166.653,672.993,166.653C724.997,166.653,776.554,183.528,827.662,217.314C827.662,217.314,827.662,55.999,827.662,55.999C782.34,34.682,742.767,20.234,708.981,12.656C674.747,4.219,636.332,0,593.66,0C546.995,0,505.667,6.011,469.678,17.994C434.996,29.082,404.346,45.77,377.691,67.983C351.894,90.644,334.347,113.977,325.014,137.982C315.233,161.987,310.342,197.752,310.342,245.314C310.342,245.314,310.342,604.641,310.342,604.641C310.342,604.641,197,604.641,197,604.641C197,604.641,197,749.306,197,749.306C237.431,762.633,271.889,781.3,300.337,805.305C328.785,829.758,351.67,859.064,368.992,893.298C386.314,927.532,398.298,971.062,404.981,1023.963C404.981,1023.963,404.981,1024,404.981,1024" /><glyph unicode="&#x0045;" d="M1023.06,761.914C1031.24,739.165,1004.58,686.918,943.078,605.176C934.54,593.801,922.986,578.695,908.417,559.856C880.681,524.299,864.71,501.042,860.441,490.025C854.38,475.457,856.888,461.067,867.905,446.856C873.964,439.392,888.354,424.822,911.073,403.148C911.073,403.148,911.611,403.148,911.611,403.148C911.611,403.148,913.731,401.028,913.731,401.028C963.857,354.484,997.802,315.196,1015.567,283.221C1016.642,281.46,1017.806,279.22,1019.03,276.564C1020.254,273.906,1021.508,269.189,1022.762,262.442C1024.015,255.694,1023.926,249.664,1022.493,244.32C1021.06,238.976,1016.612,234.109,1009.178,229.661C1001.743,225.213,991.235,223.004,977.71,223.004C977.71,223.004,841.244,220.883,841.244,220.883C832.705,219.122,822.763,219.988,811.389,223.541C800.014,227.093,790.788,231.005,783.653,235.273C783.653,235.273,772.995,241.663,772.995,241.663C762.337,249.127,749.887,260.501,735.677,275.787C721.466,291.072,709.285,304.836,699.164,317.107C689.044,329.376,678.206,339.676,666.653,348.036C655.098,356.395,645.067,359.141,636.529,356.306C635.454,355.947,634.021,355.321,632.259,354.424C630.498,353.529,627.453,350.961,623.183,346.692C618.914,342.422,615.093,337.198,611.719,330.958C608.346,324.718,605.33,315.494,602.643,303.224C599.956,290.954,598.792,277.19,599.18,261.905C599.18,256.56,598.553,251.695,597.299,247.245C596.045,242.797,594.702,239.513,593.298,237.394C593.298,237.394,591.179,234.737,591.179,234.737C584.789,227.989,575.385,224.078,562.936,223.004C562.936,223.004,501.614,223.004,501.614,223.004C476.386,221.6,450.443,224.526,423.783,231.81C397.123,239.095,373.776,248.499,353.683,260.054C333.591,271.608,315.29,283.34,298.781,295.253C282.27,307.165,269.731,317.405,261.192,325.913C261.192,325.913,247.877,338.72,247.877,338.72C244.324,342.273,239.429,347.617,233.22,354.723C227.01,361.828,214.291,378.009,195.095,403.237C175.898,428.465,157.059,455.305,138.579,483.726C120.099,512.148,98.334,549.645,73.257,596.219C48.179,642.792,24.981,691.128,3.694,741.224C1.575,746.927,0.5,751.704,0.5,755.614C0.5,759.526,1.038,762.362,2.113,764.153C2.113,764.153,4.232,767.348,4.232,767.348C9.576,774.095,19.697,777.469,34.624,777.469C34.624,777.469,180.705,778.543,180.705,778.543C184.973,777.827,189.064,776.663,192.974,775.08C196.886,773.498,199.752,771.976,201.513,770.543C201.513,770.543,204.17,768.93,204.17,768.93C209.872,765.019,214.142,759.347,216.978,751.882C224.083,734.119,232.264,715.729,241.489,696.711C250.713,677.693,257.998,663.213,263.342,653.271C263.342,653.271,271.881,637.806,271.881,637.806C282.18,616.491,292.152,598.011,301.736,582.367C311.319,566.723,319.948,554.542,327.59,545.855C335.233,537.166,342.608,530.3,349.713,525.314C356.819,520.328,362.849,517.82,367.835,517.85C372.82,517.88,377.597,518.745,382.225,520.507C382.942,520.865,383.837,521.761,384.882,523.165C385.927,524.567,388.077,528.478,391.271,534.898C394.465,541.316,396.884,549.645,398.466,559.946C400.047,570.246,401.749,584.636,403.541,603.116C405.332,621.597,405.332,643.807,403.541,669.751C402.824,683.963,401.211,696.95,398.735,708.683C396.257,720.416,393.749,728.596,391.271,733.194C391.271,733.194,388.077,739.583,388.077,739.583C379.21,751.674,364.103,759.317,342.757,762.512C338.129,763.228,339.025,767.497,345.413,775.319C351.474,782.066,358.222,787.411,365.685,791.321C384.524,800.546,426.977,804.815,493.105,804.129C522.244,803.77,546.248,801.471,565.085,797.202C572.191,795.442,578.132,793.023,582.939,790.007C587.745,786.993,591.388,782.724,593.866,777.2C596.344,771.677,598.224,766.005,599.478,760.153C600.732,754.301,601.359,746.21,601.359,735.881C601.359,725.551,601.18,715.788,600.822,706.563C600.463,697.337,600.016,684.829,599.478,668.975C598.94,653.122,598.673,638.464,598.673,625C598.673,621.089,598.493,613.626,598.135,602.609C597.776,591.592,597.687,583.053,597.866,577.022C598.045,570.992,598.673,563.797,599.747,555.437C600.822,547.078,602.852,540.151,605.868,534.659C608.883,529.166,612.884,524.806,617.869,521.582C620.705,520.865,623.751,520.149,626.945,519.463C630.139,518.775,634.767,520.717,640.797,525.314C646.828,529.912,653.576,536.032,661.069,543.704C668.563,551.377,677.788,563.26,688.805,579.411C699.821,595.563,711.883,614.67,725.048,636.733C746.365,673.692,765.382,713.669,782.101,756.689C783.504,760.242,785.295,763.377,787.445,766.035C789.594,768.691,791.535,770.572,793.296,771.647C793.296,771.647,795.416,773.26,795.416,773.26C795.416,773.26,798.073,774.602,798.073,774.602C798.073,774.602,800.372,775.14,804.999,776.215C809.628,777.289,813.18,777.379,815.657,776.484C815.657,776.484,969.202,777.558,969.202,777.558C983.054,779.319,994.429,778.872,1003.326,776.215C1012.222,773.557,1017.746,770.602,1019.866,767.407C1019.866,767.407,1023.06,761.914,1023.06,761.914" /><glyph unicode="&#x0046;" d="M1014.592,795.789C1014.592,795.789,923.74,886.64,923.74,886.64C911.164,899.217,890.907,899.217,878.33,886.64C878.33,886.64,413.832,396.253,413.832,396.253C413.832,396.253,147.582,662.631,147.582,662.631C134.877,675.336,114.268,675.336,101.564,662.631C101.564,662.631,9.528,570.532,9.528,570.532C-3.176,557.859,-3.176,537.25,9.528,524.514C9.528,524.514,388.199,137.043,388.199,137.043C395.527,129.683,405.48,127.154,415.048,128.402C424.937,126.93,435.241,129.427,442.825,137.043C442.825,137.043,1014.592,750.347,1014.592,750.347C1027.136,762.891,1027.136,783.244,1014.592,795.789C1014.592,795.789,1014.592,795.789,1014.592,795.789" /><glyph unicode="&#x0047;" d="M1024,298.699C1024,289.794,1020.553,281.924,1013.716,275.087C1013.716,275.087,962.413,223.784,962.413,223.784C955.576,216.947,947.706,213.5,938.801,213.5C929.896,213.5,922.025,216.947,915.189,223.784C915.189,223.784,512,626.972,512,626.972C512,626.972,108.811,223.784,108.811,223.784C101.975,216.947,94.104,213.5,85.199,213.5C76.294,213.5,68.424,216.947,61.587,223.784C61.587,223.784,10.284,275.087,10.284,275.087C3.447,281.924,0,289.794,0,298.699C0,307.604,3.447,315.475,10.284,322.311C10.284,322.311,488.33,800.358,488.33,800.358C495.167,807.195,503.038,810.642,511.943,810.642C520.847,810.642,528.718,807.195,535.555,800.358C535.555,800.358,1013.601,322.311,1013.601,322.311C1020.438,315.475,1023.885,307.604,1023.885,298.699C1023.885,298.699,1024,298.699,1024,298.699" /><glyph unicode="&#x0048;" d="M953.622,250.472C969.77,234.509,995.815,234.509,1011.889,250.472C1028.037,266.434,1028.037,292.218,1011.889,308.143C1011.889,308.143,541.101,774.28,541.101,774.28C525.027,790.242,498.945,790.242,482.871,774.28C482.871,774.28,12.083,308.143,12.083,308.143C-3.991,292.181,-4.065,266.396,12.083,250.472C28.231,234.547,54.239,234.509,70.35,250.472C70.35,250.472,511.967,675.606,511.967,675.606C511.967,675.606,953.585,250.472,953.585,250.472C953.585,250.472,953.622,250.472,953.622,250.472" /><glyph unicode="&#x0049;" d="M10.629,54.458C18.307,52.539,26.157,56.98,28.162,64.6C57.672,174.702,177.6,203.237,249.281,220.312C267.245,224.581,281.426,227.962,290.652,231.944C372.304,267.384,398.919,324.397,406.884,365.996C407.858,371.01,406.053,376.167,402.157,379.548C359.64,416.248,323.771,471.341,301.138,534.715C300.507,536.52,299.505,538.181,298.187,539.614C268.248,572.16,251.058,606.568,251.058,633.986C251.058,650.002,257.103,660.745,270.711,668.853C274.866,671.346,277.473,675.729,277.673,680.542C284.005,826.496,387.946,941.382,515.438,942.127C515.581,942.127,518.36,941.926,518.504,941.926C646.625,940.15,749.908,822.8,753.604,674.784C753.718,670.687,755.552,666.848,758.703,664.212C767.671,656.62,771.854,646.993,771.854,633.929C771.854,610.981,759.62,582.761,737.445,554.512C736.385,553.165,735.583,551.618,735.039,549.985C712.119,477.329,670.978,413.182,622.216,373.932C618.09,370.609,616.142,365.28,617.116,360.094C625.081,318.524,651.696,261.539,733.348,226.042C743.003,221.859,757.987,218.593,776.982,214.496C847.947,199.14,966.701,173.384,995.838,64.6C997.557,58.212,1003.344,54,1009.647,54C1010.879,54,1012.111,54.172,1013.371,54.487C1021.021,56.55,1025.547,64.4,1023.513,72.049C989.85,197.736,855.31,226.873,783.056,242.516C766.296,246.154,751.827,249.277,744.78,252.371C691.491,275.52,658.658,310.788,647.055,357.373C696.533,399.86,737.932,465.411,761.597,538.926C786.723,571.587,800.532,605.222,800.532,633.958C800.532,653.124,794.344,669.111,782.082,681.602C775.263,842.168,660.692,968.599,518.504,970.633C518.504,970.633,514.235,970.691,514.235,970.691C374.624,969.946,259.567,846.838,249.511,689.051C231.576,675.872,222.465,657.393,222.465,633.929C222.465,600.036,241.632,559.497,275.181,522.309C298.359,458.621,334.285,402.668,377.059,363.504C365.514,316.747,332.652,281.365,279.249,258.187C272.345,255.179,258.593,251.884,242.663,248.102C169.864,230.798,34.408,198.567,0.487,71.992C-1.547,64.343,2.979,56.521,10.629,54.458C10.629,54.458,10.629,54.458,10.629,54.458" /><glyph unicode="&#x004a;" d="M336,1024C150.72,1024,0,873.28,0,688C0,502.72,150.72,352,336,352C423.2,352,502.496,385.664,562.272,440.32C562.976,439.072,563.616,437.76,564.704,436.672C564.704,436.672,633.536,367.84,633.536,367.84C627.776,358.112,624.512,347.104,624.512,335.488C624.512,318.4,631.168,302.336,643.264,290.24C643.264,290.24,914.784,18.72,914.784,18.72C926.848,6.656,942.912,0,960,0C977.088,0,993.152,6.656,1005.248,18.752C1017.344,30.848,1024,46.912,1024,64C1024,81.088,1017.344,97.152,1005.248,109.248C1005.248,109.248,733.728,380.768,733.728,380.768C713.44,401.056,680.64,404.096,656.288,390.336C656.288,390.336,587.328,459.296,587.328,459.296C586.24,460.384,584.96,461.024,583.68,461.728C638.336,521.504,672,600.8,672,688C672,873.28,521.28,1024,336,1024C336,1024,336,1024,336,1024M711.104,358.144C711.104,358.144,982.624,86.624,982.624,86.624C988.672,80.576,992,72.544,992,64C992,55.456,988.672,47.424,982.624,41.376C970.496,29.312,949.504,29.312,937.376,41.376C937.376,41.376,665.856,312.896,665.856,312.896C659.84,318.944,656.48,326.976,656.48,335.52C656.48,344.064,659.808,352.096,665.856,358.144C671.904,364.16,679.936,367.52,688.48,367.52C697.024,367.52,705.024,364.192,711.104,358.144C711.104,358.144,711.104,358.144,711.104,358.144M336,384C168.384,384,32,520.384,32,688C32,855.616,168.384,992,336,992C503.616,992,640,855.616,640,688C640,520.384,503.616,384,336,384C336,384,336,384,336,384M336,928C203.648,928,96,820.352,96,688C96,555.648,203.648,448,336,448C468.352,448,576,555.648,576,688C576,820.352,468.352,928,336,928C336,928,336,928,336,928M336,480C221.312,480,128,573.312,128,688C128,802.688,221.312,896,336,896C450.688,896,544,802.688,544,688C544,573.312,450.688,480,336,480C336,480,336,480,336,480" /><glyph unicode="&#x004b;" d="M1024,219.725C1024,219.725,1024,146.575,1024,146.575C1024,136.687,1020.384,128.112,1013.152,120.848C1005.92,113.584,997.345,109.968,987.425,110C987.425,110,36.607,110,36.607,110C26.719,110,18.143,113.616,10.88,120.848C3.616,128.08,0,136.655,0.032,146.575C0.032,146.575,0.032,219.725,0.032,219.725C0.032,229.612,3.648,238.188,10.88,245.452C18.111,252.716,26.687,256.332,36.607,256.3C36.607,256.3,987.425,256.3,987.425,256.3C997.313,256.3,1005.888,252.684,1013.152,245.452C1020.416,238.22,1024.032,229.644,1024,219.725C1024,219.725,1024,219.725,1024,219.725M804.583,439.142C804.583,439.142,804.583,365.992,804.583,365.992C804.583,356.104,800.967,347.529,793.735,340.265C786.503,333.001,777.928,329.385,768.008,329.417C768.008,329.417,36.607,329.417,36.607,329.417C26.719,329.417,18.143,333.033,10.88,340.265C3.616,347.497,0,356.072,0.032,365.992C0.032,365.992,0.032,439.142,0.032,439.142C0.032,449.03,3.648,457.605,10.88,464.869C18.111,472.133,26.687,475.749,36.607,475.717C36.607,475.717,768.008,475.717,768.008,475.717C777.896,475.717,786.471,472.101,793.735,464.869C800.999,457.637,804.615,449.062,804.583,439.142C804.583,439.142,804.583,439.142,804.583,439.142M950.85,658.559C950.85,658.559,950.85,585.409,950.85,585.409C950.85,575.522,947.234,566.946,940.002,559.682C932.771,552.418,924.195,548.802,914.275,548.834C914.275,548.834,36.575,548.834,36.575,548.834C26.687,548.834,18.111,552.45,10.848,559.682C3.584,566.914,-0.032,575.49,0,585.409C0,585.409,0,658.559,0,658.559C0,668.447,3.616,677.022,10.848,684.286C18.079,691.55,26.655,695.166,36.575,695.134C36.575,695.134,914.275,695.134,914.275,695.134C924.163,695.134,932.739,691.518,940.002,684.286C947.266,677.054,950.882,668.479,950.85,658.559C950.85,658.559,950.85,658.559,950.85,658.559M731.433,877.976C731.433,877.976,731.433,804.826,731.433,804.826C731.433,794.939,727.817,786.363,720.585,779.099C713.354,771.835,704.778,768.22,694.858,768.252C694.858,768.252,36.607,768.252,36.607,768.252C26.719,768.252,18.143,771.867,10.88,779.099C3.616,786.331,0,794.907,0.032,804.826C0.032,804.826,0.032,877.976,0.032,877.976C0.032,887.864,3.648,896.439,10.88,903.703C18.111,910.967,26.687,914.583,36.607,914.551C36.607,914.551,694.858,914.551,694.858,914.551C704.746,914.551,713.322,910.935,720.585,903.703C727.849,896.471,731.465,887.896,731.433,877.976C731.433,877.976,731.433,877.976,731.433,877.976" /><glyph unicode="&#x004c;" d="M1024,219.728C1024,219.728,1024,146.576,1024,146.576C1024,136.688,1020.384,128.112,1013.152,120.848C1005.92,113.584,997.344,109.968,987.424,110C987.424,110,36.576,110,36.576,110C26.688,110,18.112,113.616,10.848,120.848C3.584,128.08,-0.032,136.656,0,146.576C0,146.576,0,219.728,0,219.728C0,229.616,3.616,238.192,10.848,245.456C18.08,252.72,26.656,256.336,36.576,256.304C36.576,256.304,987.424,256.304,987.424,256.304C997.312,256.304,1005.888,252.688,1013.152,245.456C1020.416,238.224,1024.032,229.648,1024,219.728C1024,219.728,1024,219.728,1024,219.728M1024,439.152C1024,439.152,1024,366,1024,366C1024,356.112,1020.384,347.536,1013.152,340.272C1005.92,333.008,997.344,329.392,987.424,329.424C987.424,329.424,36.576,329.424,36.576,329.424C26.688,329.424,18.112,333.04,10.848,340.272C3.584,347.504,-0.032,356.08,0,366C0,366,0,439.152,0,439.152C0,449.04,3.616,457.616,10.848,464.88C18.08,472.144,26.656,475.76,36.576,475.728C36.576,475.728,987.424,475.728,987.424,475.728C997.312,475.728,1005.888,472.112,1013.152,464.88C1020.416,457.648,1024.032,449.072,1024,439.152C1024,439.152,1024,439.152,1024,439.152M1024,658.576C1024,658.576,1024,585.424,1024,585.424C1024,575.536,1020.384,566.96,1013.152,559.696C1005.92,552.432,997.344,548.816,987.424,548.848C987.424,548.848,36.576,548.848,36.576,548.848C26.688,548.848,18.112,552.464,10.848,559.696C3.584,566.928,-0.032,575.504,0,585.424C0,585.424,0,658.576,0,658.576C0,668.464,3.616,677.04,10.848,684.304C18.08,691.568,26.656,695.184,36.576,695.152C36.576,695.152,987.424,695.152,987.424,695.152C997.312,695.152,1005.888,691.536,1013.152,684.304C1020.416,677.072,1024.032,668.496,1024,658.576C1024,658.576,1024,658.576,1024,658.576M1024,878C1024,878,1024,804.848,1024,804.848C1024,794.96,1020.384,786.384,1013.152,779.12C1005.92,771.856,997.344,768.24,987.424,768.272C987.424,768.272,36.576,768.272,36.576,768.272C26.688,768.272,18.112,771.888,10.848,779.12C3.584,786.352,-0.032,794.928,0,804.848C0,804.848,0,878,0,878C0,887.888,3.616,896.464,10.848,903.728C18.08,910.992,26.656,914.608,36.576,914.576C36.576,914.576,987.424,914.576,987.424,914.576C997.312,914.576,1005.888,910.96,1013.152,903.728C1020.416,896.496,1024.032,887.92,1024,878C1024,878,1024,878,1024,878" /><glyph unicode="&#x004d;" d="M1024,219.728C1024,219.728,1024,146.576,1024,146.576C1024,136.688,1020.384,128.112,1013.152,120.848C1005.92,113.584,997.344,109.968,987.424,110C987.424,110,36.576,110,36.576,110C26.688,110,18.112,113.616,10.848,120.848C3.584,128.08,-0.032,136.656,0,146.576C0,146.576,0,219.728,0,219.728C0,229.616,3.616,238.192,10.848,245.456C18.08,252.72,26.656,256.336,36.576,256.304C36.576,256.304,987.424,256.304,987.424,256.304C997.312,256.304,1005.888,252.688,1013.152,245.456C1020.416,238.224,1024.032,229.648,1024,219.728C1024,219.728,1024,219.728,1024,219.728M804.576,439.152C804.576,439.152,804.576,366,804.576,366C804.576,356.112,800.96,347.536,793.728,340.272C786.496,333.008,777.92,329.392,768,329.424C768,329.424,256,329.424,256,329.424C246.112,329.424,237.536,333.04,230.272,340.272C223.008,347.504,219.392,356.08,219.424,366C219.424,366,219.424,439.152,219.424,439.152C219.424,449.04,223.04,457.616,230.272,464.88C237.504,472.144,246.08,475.76,256,475.728C256,475.728,768,475.728,768,475.728C777.888,475.728,786.464,472.112,793.728,464.88C800.992,457.648,804.608,449.072,804.576,439.152C804.576,439.152,804.576,439.152,804.576,439.152M950.848,658.576C950.848,658.576,950.848,585.424,950.848,585.424C950.848,575.536,947.232,566.96,940,559.696C932.768,552.432,924.192,548.816,914.272,548.848C914.272,548.848,109.696,548.848,109.696,548.848C99.808,548.848,91.232,552.464,83.968,559.696C76.704,566.928,73.088,575.504,73.12,585.424C73.12,585.424,73.12,658.576,73.12,658.576C73.12,668.464,76.736,677.04,83.968,684.304C91.2,691.568,99.776,695.184,109.696,695.152C109.696,695.152,914.272,695.152,914.272,695.152C924.16,695.152,932.736,691.536,940,684.304C947.264,677.072,950.88,668.496,950.848,658.576C950.848,658.576,950.848,658.576,950.848,658.576M731.424,878C731.424,878,731.424,804.848,731.424,804.848C731.424,794.96,727.808,786.384,720.576,779.12C713.344,771.856,704.768,768.24,694.848,768.272C694.848,768.272,329.12,768.272,329.12,768.272C319.232,768.272,310.656,771.888,303.392,779.12C296.128,786.352,292.512,794.928,292.544,804.848C292.544,804.848,292.544,878,292.544,878C292.544,887.888,296.16,896.464,303.392,903.728C310.624,910.992,319.2,914.608,329.12,914.576C329.12,914.576,694.848,914.576,694.848,914.576C704.736,914.576,713.312,910.96,720.576,903.728C727.84,896.496,731.456,887.92,731.424,878C731.424,878,731.424,878,731.424,878" /><glyph unicode="&#x004e;" d="M944.469,0C944.469,0,1009.658,65.189,1009.658,65.189C1009.658,65.189,807.452,267.395,807.452,267.395C807.452,267.395,740.534,203.901,740.534,203.901C740.534,203.901,944.435,0,944.435,0C944.435,0,944.469,0,944.469,0M14.5,614.746C14.5,388.816,197.755,205.526,423.72,205.526C512.217,205.526,593.868,233.988,660.855,281.712C660.855,281.712,742.021,358.728,742.021,358.728C798.598,428.863,833.008,517.672,833.008,614.78C833.008,840.814,649.754,1024,423.789,1024C197.824,1024,14.5,840.814,14.5,614.78C14.5,614.78,14.5,614.746,14.5,614.746M740.741,614.746C740.741,439.929,598.536,297.724,423.72,297.724C248.903,297.724,106.698,439.929,106.698,614.746C106.698,789.562,248.903,931.767,423.72,931.767C598.536,931.767,740.741,789.562,740.741,614.746C740.741,614.746,740.741,614.746,740.741,614.746" /><glyph unicode="&#x004f;" d="M995.792,28.676C958.225,-8.892,897.33,-8.892,859.795,28.676C859.795,28.676,690.069,198.401,690.069,198.401C620.31,153.634,537.816,126.978,448.761,126.978C200.925,126.978,0,327.871,0,575.739C0,823.607,200.925,1024.5,448.761,1024.5C696.629,1024.5,897.522,823.607,897.522,575.739C897.522,486.716,870.834,404.19,826.099,334.399C826.099,334.399,995.824,164.673,995.824,164.673C1033.392,127.106,1033.392,66.243,995.824,28.708C995.824,28.708,995.792,28.676,995.792,28.676M448.729,896.278C271.708,896.278,128.19,752.792,128.19,575.739C128.19,398.686,271.708,255.2,448.729,255.2C625.782,255.2,769.268,398.686,769.268,575.739C769.268,752.792,625.782,896.278,448.729,896.278C448.729,896.278,448.729,896.278,448.729,896.278" /><glyph unicode="&#x0050;" d="M1024,219.728C1024,219.728,1024,146.576,1024,146.576C1024,136.688,1020.384,128.112,1013.152,120.848C1005.92,113.584,997.344,109.968,987.424,110C987.424,110,36.576,110,36.576,110C26.688,110,18.112,113.616,10.848,120.848C3.584,128.08,-0.032,136.656,0,146.576C0,146.576,0,219.728,0,219.728C0,229.616,3.616,238.192,10.848,245.456C18.08,252.72,26.656,256.336,36.576,256.304C36.576,256.304,987.424,256.304,987.424,256.304C997.312,256.304,1005.888,252.688,1013.152,245.456C1020.416,238.224,1024.032,229.648,1024,219.728C1024,219.728,1024,219.728,1024,219.728M1024,439.152C1024,439.152,1024,366,1024,366C1024,356.112,1020.384,347.536,1013.152,340.272C1005.92,333.008,997.344,329.392,987.424,329.424C987.424,329.424,256,329.424,256,329.424C246.112,329.424,237.536,333.04,230.272,340.272C223.008,347.504,219.392,356.08,219.424,366C219.424,366,219.424,439.152,219.424,439.152C219.424,449.04,223.04,457.616,230.272,464.88C237.504,472.144,246.08,475.76,256,475.728C256,475.728,987.424,475.728,987.424,475.728C997.312,475.728,1005.888,472.112,1013.152,464.88C1020.416,457.648,1024.032,449.072,1024,439.152C1024,439.152,1024,439.152,1024,439.152M1024,658.576C1024,658.576,1024,585.424,1024,585.424C1024,575.536,1020.384,566.96,1013.152,559.696C1005.92,552.432,997.344,548.816,987.424,548.848C987.424,548.848,109.696,548.848,109.696,548.848C99.808,548.848,91.232,552.464,83.968,559.696C76.704,566.928,73.088,575.504,73.12,585.424C73.12,585.424,73.12,658.576,73.12,658.576C73.12,668.464,76.736,677.04,83.968,684.304C91.2,691.568,99.776,695.184,109.696,695.152C109.696,695.152,987.424,695.152,987.424,695.152C997.312,695.152,1005.888,691.536,1013.152,684.304C1020.416,677.072,1024.032,668.496,1024,658.576C1024,658.576,1024,658.576,1024,658.576M1024,878C1024,878,1024,804.848,1024,804.848C1024,794.96,1020.384,786.384,1013.152,779.12C1005.92,771.856,997.344,768.24,987.424,768.272C987.424,768.272,329.152,768.272,329.152,768.272C319.264,768.272,310.688,771.888,303.424,779.12C296.16,786.352,292.544,794.928,292.576,804.848C292.576,804.848,292.576,878,292.576,878C292.576,887.888,296.192,896.464,303.424,903.728C310.656,910.992,319.232,914.608,329.152,914.576C329.152,914.576,987.424,914.576,987.424,914.576C997.312,914.576,1005.888,910.96,1013.152,903.728C1020.416,896.496,1024.032,887.92,1024,878C1024,878,1024,878,1024,878" /><glyph unicode="&#x0051;" d="M201.178,512.323C201.178,506.98,199.45,502.596,196.026,499.172C196.026,499.172,31.455,334.601,31.455,334.601C28.031,331.177,23.647,329.449,18.303,329.449C13.344,329.449,9.056,331.273,5.44,334.889C1.824,338.505,0,342.793,0,347.753C0,347.753,0,676.894,0,676.894C0,681.854,1.824,686.142,5.44,689.758C9.056,693.374,13.344,695.198,18.303,695.198C23.647,695.198,28.031,693.47,31.455,690.046C31.455,690.046,196.026,525.475,196.026,525.475C199.45,522.051,201.178,517.667,201.178,512.323C201.178,512.323,201.178,512.323,201.178,512.323M1024,238.028C1024,238.028,1024,128.303,1024,128.303C1024,123.344,1022.176,119.056,1018.56,115.44C1014.944,111.824,1010.656,110,1005.697,110C1005.697,110,18.303,110,18.303,110C13.344,110,9.056,111.824,5.44,115.44C1.824,119.056,0,123.344,0,128.303C0,128.303,0,238.028,0,238.028C0,242.988,1.824,247.276,5.44,250.892C9.056,254.507,13.344,256.331,18.303,256.331C18.303,256.331,1005.697,256.331,1005.697,256.331C1010.656,256.331,1014.944,254.507,1018.56,250.892C1022.176,247.276,1024,242.988,1024,238.028C1024,238.028,1024,238.028,1024,238.028M1024,457.477C1024,457.477,1024,347.753,1024,347.753C1024,342.793,1022.176,338.505,1018.56,334.889C1014.944,331.273,1010.656,329.449,1005.697,329.449C1005.697,329.449,383.988,329.449,383.988,329.449C379.028,329.449,374.74,331.273,371.124,334.889C367.509,338.505,365.685,342.793,365.685,347.753C365.685,347.753,365.685,457.477,365.685,457.477C365.685,462.437,367.509,466.725,371.124,470.341C374.74,473.957,379.028,475.781,383.988,475.781C383.988,475.781,1005.697,475.781,1005.697,475.781C1010.656,475.781,1014.944,473.957,1018.56,470.341C1022.176,466.725,1024,462.437,1024,457.477C1024,457.477,1024,457.477,1024,457.477M1024,676.894C1024,676.894,1024,567.17,1024,567.17C1024,562.21,1022.176,557.922,1018.56,554.306C1014.944,550.69,1010.656,548.866,1005.697,548.866C1005.697,548.866,383.988,548.866,383.988,548.866C379.028,548.866,374.74,550.69,371.124,554.306C367.509,557.922,365.685,562.21,365.685,567.17C365.685,567.17,365.685,676.894,365.685,676.894C365.685,681.854,367.509,686.142,371.124,689.758C374.74,693.374,379.028,695.198,383.988,695.198C383.988,695.198,1005.697,695.198,1005.697,695.198C1010.656,695.198,1014.944,693.374,1018.56,689.758C1022.176,686.142,1024,681.854,1024,676.894C1024,676.894,1024,676.894,1024,676.894M1024,896.311C1024,896.311,1024,786.587,1024,786.587C1024,781.627,1022.176,777.339,1018.56,773.723C1014.944,770.107,1010.656,768.283,1005.697,768.283C1005.697,768.283,18.303,768.283,18.303,768.283C13.344,768.283,9.056,770.107,5.44,773.723C1.824,777.339,0,781.627,0,786.587C0,786.587,0,896.311,0,896.311C0,901.271,1.824,905.559,5.44,909.175C9.056,912.791,13.344,914.615,18.303,914.615C18.303,914.615,1005.697,914.615,1005.697,914.615C1010.656,914.615,1014.944,912.791,1018.56,909.175C1022.176,905.559,1024,901.271,1024,896.311C1024,896.311,1024,896.311,1024,896.311" /><glyph unicode="&#x0052;" d="M219.449,219.725C219.449,189.23,208.793,163.342,187.45,141.999C166.107,120.656,140.22,110,109.725,110C79.23,110,53.342,120.656,31.999,141.999C10.656,163.342,0,189.23,0,219.725C0,250.22,10.656,276.107,31.999,297.45C53.342,318.793,79.23,329.449,109.725,329.449C140.22,329.449,166.107,318.793,187.45,297.45C208.793,276.107,219.449,250.22,219.449,219.725C219.449,219.725,219.449,219.725,219.449,219.725M219.449,512.291C219.449,481.796,208.793,455.909,187.45,434.566C166.107,413.223,140.22,402.567,109.725,402.567C79.23,402.567,53.342,413.223,31.999,434.566C10.656,455.909,0,481.796,0,512.291C0,542.786,10.656,568.674,31.999,590.017C53.342,611.36,79.23,622.016,109.725,622.016C140.22,622.016,166.107,611.36,187.45,590.017C208.793,568.674,219.449,542.786,219.449,512.291C219.449,512.291,219.449,512.291,219.449,512.291M1024,274.571C1024,274.571,1024,164.846,1024,164.846C1024,159.886,1022.176,155.599,1018.56,151.983C1014.944,148.367,1010.656,146.543,1005.697,146.543C1005.697,146.543,310.87,146.543,310.87,146.543C305.91,146.543,301.623,148.367,298.007,151.983C294.391,155.599,292.567,159.886,292.567,164.846C292.567,164.846,292.567,274.571,292.567,274.571C292.567,279.531,294.391,283.819,298.007,287.434C301.623,291.05,305.91,292.874,310.87,292.874C310.87,292.874,1005.697,292.874,1005.697,292.874C1010.656,292.874,1014.944,291.05,1018.56,287.434C1022.176,283.819,1024,279.531,1024,274.571C1024,274.571,1024,274.571,1024,274.571M219.449,804.858C219.449,774.363,208.793,748.476,187.45,727.133C166.107,705.789,140.22,695.134,109.725,695.134C79.23,695.134,53.342,705.789,31.999,727.133C10.656,748.476,0,774.363,0,804.858C0,835.353,10.656,861.241,31.999,882.584C53.342,903.927,79.23,914.583,109.725,914.583C140.22,914.583,166.107,903.927,187.45,882.584C208.793,861.241,219.449,835.353,219.449,804.858C219.449,804.858,219.449,804.858,219.449,804.858M1024,567.138C1024,567.138,1024,457.413,1024,457.413C1024,452.453,1022.176,448.165,1018.56,444.55C1014.944,440.934,1010.656,439.11,1005.697,439.11C1005.697,439.11,310.87,439.11,310.87,439.11C305.91,439.11,301.623,440.934,298.007,444.55C294.391,448.165,292.567,452.453,292.567,457.413C292.567,457.413,292.567,567.138,292.567,567.138C292.567,572.098,294.391,576.385,298.007,580.001C301.623,583.617,305.91,585.441,310.87,585.441C310.87,585.441,1005.697,585.441,1005.697,585.441C1010.656,585.441,1014.944,583.617,1018.56,580.001C1022.176,576.385,1024,572.098,1024,567.138C1024,567.138,1024,567.138,1024,567.138M1024,859.705C1024,859.705,1024,749.98,1024,749.98C1024,745.02,1022.176,740.732,1018.56,737.116C1014.944,733.501,1010.656,731.677,1005.697,731.677C1005.697,731.677,310.87,731.677,310.87,731.677C305.91,731.677,301.623,733.501,298.007,737.116C294.391,740.732,292.567,745.02,292.567,749.98C292.567,749.98,292.567,859.705,292.567,859.705C292.567,864.664,294.391,868.952,298.007,872.568C301.623,876.184,305.91,878.008,310.87,878.008C310.87,878.008,1005.697,878.008,1005.697,878.008C1010.656,878.008,1014.944,876.184,1018.56,872.568C1022.176,868.952,1024,864.664,1024,859.705C1024,859.705,1024,859.705,1024,859.705" /><glyph unicode="&#x0053;" d="M146.327,238.024C146.327,238.024,146.327,128.303,146.327,128.303C146.327,123.343,144.503,119.055,140.887,115.44C137.271,111.824,132.984,110,128.024,110C128.024,110,18.303,110,18.303,110C13.343,110,9.055,111.824,5.44,115.44C1.824,119.055,0,123.343,0,128.303C0,128.303,0,238.024,0,238.024C0,242.984,1.824,247.271,5.44,250.887C9.055,254.503,13.343,256.327,18.303,256.327C18.303,256.327,128.024,256.327,128.024,256.327C132.984,256.327,137.271,254.503,140.887,250.887C144.503,247.271,146.327,242.984,146.327,238.024C146.327,238.024,146.327,238.024,146.327,238.024M146.327,457.466C146.327,457.466,146.327,347.745,146.327,347.745C146.327,342.785,144.503,338.498,140.887,334.882C137.271,331.266,132.984,329.442,128.024,329.442C128.024,329.442,18.303,329.442,18.303,329.442C13.343,329.442,9.055,331.266,5.44,334.882C1.824,338.498,0,342.785,0,347.745C0,347.745,0,457.466,0,457.466C0,462.426,1.824,466.714,5.44,470.329C9.055,473.945,13.343,475.769,18.303,475.769C18.303,475.769,128.024,475.769,128.024,475.769C132.984,475.769,137.271,473.945,140.887,470.329C144.503,466.714,146.327,462.426,146.327,457.466C146.327,457.466,146.327,457.466,146.327,457.466M146.327,676.877C146.327,676.877,146.327,567.155,146.327,567.155C146.327,562.196,144.503,557.908,140.887,554.292C137.271,550.676,132.984,548.853,128.024,548.853C128.024,548.853,18.303,548.853,18.303,548.853C13.343,548.853,9.055,550.676,5.44,554.292C1.824,557.908,0,562.196,0,567.155C0,567.155,0,676.877,0,676.877C0,681.836,1.824,686.124,5.44,689.74C9.055,693.356,13.343,695.179,18.303,695.179C18.303,695.179,128.024,695.179,128.024,695.179C132.984,695.179,137.271,693.356,140.887,689.74C144.503,686.124,146.327,681.836,146.327,676.877C146.327,676.877,146.327,676.877,146.327,676.877M1024,238.024C1024,238.024,1024,128.303,1024,128.303C1024,123.343,1022.176,119.055,1018.56,115.44C1014.945,111.824,1010.657,110,1005.697,110C1005.697,110,237.745,110,237.745,110C232.785,110,228.498,111.824,224.882,115.44C221.266,119.055,219.442,123.343,219.442,128.303C219.442,128.303,219.442,238.024,219.442,238.024C219.442,242.984,221.266,247.271,224.882,250.887C228.498,254.503,232.785,256.327,237.745,256.327C237.745,256.327,1005.697,256.327,1005.697,256.327C1010.657,256.327,1014.945,254.503,1018.56,250.887C1022.176,247.271,1024,242.984,1024,238.024C1024,238.024,1024,238.024,1024,238.024M146.327,896.287C146.327,896.287,146.327,786.566,146.327,786.566C146.327,781.606,144.503,777.318,140.887,773.703C137.271,770.087,132.984,768.263,128.024,768.263C128.024,768.263,18.303,768.263,18.303,768.263C13.343,768.263,9.055,770.087,5.44,773.703C1.824,777.318,0,781.606,0,786.566C0,786.566,0,896.287,0,896.287C0,901.247,1.824,905.534,5.44,909.15C9.055,912.766,13.343,914.59,18.303,914.59C18.303,914.59,128.024,914.59,128.024,914.59C132.984,914.59,137.271,912.766,140.887,909.15C144.503,905.534,146.327,901.247,146.327,896.287C146.327,896.287,146.327,896.287,146.327,896.287M1024,457.466C1024,457.466,1024,347.745,1024,347.745C1024,342.785,1022.176,338.498,1018.56,334.882C1014.945,331.266,1010.657,329.442,1005.697,329.442C1005.697,329.442,237.745,329.442,237.745,329.442C232.785,329.442,228.498,331.266,224.882,334.882C221.266,338.498,219.442,342.785,219.442,347.745C219.442,347.745,219.442,457.466,219.442,457.466C219.442,462.426,221.266,466.714,224.882,470.329C228.498,473.945,232.785,475.769,237.745,475.769C237.745,475.769,1005.697,475.769,1005.697,475.769C1010.657,475.769,1014.945,473.945,1018.56,470.329C1022.176,466.714,1024,462.426,1024,457.466C1024,457.466,1024,457.466,1024,457.466M1024,676.877C1024,676.877,1024,567.155,1024,567.155C1024,562.196,1022.176,557.908,1018.56,554.292C1014.945,550.676,1010.657,548.853,1005.697,548.853C1005.697,548.853,237.745,548.853,237.745,548.853C232.785,548.853,228.498,550.676,224.882,554.292C221.266,557.908,219.442,562.196,219.442,567.155C219.442,567.155,219.442,676.877,219.442,676.877C219.442,681.836,221.266,686.124,224.882,689.74C228.498,693.356,232.785,695.179,237.745,695.179C237.745,695.179,1005.697,695.179,1005.697,695.179C1010.657,695.179,1014.945,693.356,1018.56,689.74C1022.176,686.124,1024,681.836,1024,676.877C1024,676.877,1024,676.877,1024,676.877M1024,896.287C1024,896.287,1024,786.566,1024,786.566C1024,781.606,1022.176,777.318,1018.56,773.703C1014.945,770.087,1010.657,768.263,1005.697,768.263C1005.697,768.263,237.745,768.263,237.745,768.263C232.785,768.263,228.498,770.087,224.882,773.703C221.266,777.318,219.442,781.606,219.442,786.566C219.442,786.566,219.442,896.287,219.442,896.287C219.442,901.247,221.266,905.534,224.882,909.15C228.498,912.766,232.785,914.59,237.745,914.59C237.745,914.59,1005.697,914.59,1005.697,914.59C1010.657,914.59,1014.945,912.766,1018.56,909.15C1022.176,905.534,1024,901.247,1024,896.287C1024,896.287,1024,896.287,1024,896.287" /><glyph unicode="&#x0054;" d="M1024,213.514C1024,213.514,1024,128.172,1024,128.172C1024,116.636,1019.781,106.631,1011.344,98.156C1002.907,89.682,992.902,85.463,981.329,85.5C981.329,85.5,42.671,85.5,42.671,85.5C31.136,85.5,21.13,89.719,12.656,98.156C4.181,106.593,-0.037,116.598,0,128.172C0,128.172,0,213.514,0,213.514C0,225.05,4.219,235.055,12.656,243.53C21.093,252.004,31.098,256.223,42.671,256.186C42.671,256.186,981.329,256.186,981.329,256.186C992.864,256.186,1002.87,251.967,1011.344,243.53C1019.819,235.093,1024.037,225.087,1024,213.514C1024,213.514,1024,213.514,1024,213.514M1024,554.848C1024,554.848,1024,469.505,1024,469.505C1024,457.969,1019.781,447.964,1011.344,439.489C1002.907,431.015,992.902,426.796,981.329,426.834C981.329,426.834,42.671,426.834,42.671,426.834C31.136,426.834,21.13,431.052,12.656,439.489C4.181,447.927,-0.037,457.932,0,469.505C0,469.505,0,554.848,0,554.848C0,566.383,4.219,576.389,12.656,584.863C21.093,593.338,31.098,597.556,42.671,597.519C42.671,597.519,981.329,597.519,981.329,597.519C992.864,597.519,1002.87,593.3,1011.344,584.863C1019.819,576.426,1024.037,566.421,1024,554.848C1024,554.848,1024,554.848,1024,554.848M1024,896.181C1024,896.181,1024,810.838,1024,810.838C1024,799.302,1019.781,789.297,1011.344,780.823C1002.907,772.348,992.902,768.13,981.329,768.167C981.329,768.167,42.671,768.167,42.671,768.167C31.136,768.167,21.13,772.386,12.656,780.823C4.181,789.26,-0.037,799.265,0,810.838C0,810.838,0,896.181,0,896.181C0,907.717,4.219,917.722,12.656,926.196C21.093,934.671,31.098,938.89,42.671,938.852C42.671,938.852,981.329,938.852,981.329,938.852C992.864,938.852,1002.87,934.634,1011.344,926.196C1019.819,917.759,1024.037,907.754,1024,896.181C1024,896.181,1024,896.181,1024,896.181" /><glyph unicode="&#x0055;" d="M874.005,874.505C674.139,1074.434,349.925,1074.434,149.995,874.505C-49.998,674.575,-49.998,350.361,149.995,150.495C349.925,-49.498,674.139,-49.498,874.005,150.495C1073.998,350.361,1073.998,674.575,874.005,874.505C874.005,874.505,874.005,874.505,874.005,874.505M783.512,240.988C633.564,90.977,390.436,90.977,240.488,240.988C90.541,390.936,90.541,634.064,240.488,784.012C390.436,933.959,633.564,933.959,783.512,784.012C933.523,634,933.523,390.936,783.512,240.988C783.512,240.988,783.512,240.988,783.512,240.988M602.525,512.468C602.525,512.468,738.265,376.728,738.265,376.728C738.265,376.728,647.772,286.235,647.772,286.235C647.772,286.235,512.032,421.975,512.032,421.975C512.032,421.975,376.292,286.235,376.292,286.235C376.292,286.235,285.735,376.728,285.735,376.728C285.735,376.728,421.475,512.468,421.475,512.468C421.475,512.468,285.735,648.208,285.735,648.208C285.735,648.208,376.292,738.765,376.292,738.765C376.292,738.765,512.032,603.025,512.032,603.025C512.032,603.025,647.772,738.765,647.772,738.765C647.772,738.765,738.265,648.208,738.265,648.208C738.265,648.208,602.525,512.468,602.525,512.468" /><glyph unicode="&#x0056;" d="M512,1024C229.675,1024,0,794.283,0,512C0,229.717,229.675,0,512,0C794.325,0,1024,229.717,1024,512C1024,794.283,794.325,1024,512,1024C512,1024,512,1024,512,1024M512,113.792C292.48,113.792,113.792,292.437,113.792,512C113.792,731.563,292.48,910.208,512,910.208C731.52,910.208,910.208,731.563,910.208,512C910.208,292.437,731.52,113.792,512,113.792C512,113.792,512,113.792,512,113.792M552.235,512C552.235,512,702.763,662.528,702.763,662.528C713.813,673.579,713.813,691.669,702.763,702.763C691.669,713.813,673.579,713.813,662.528,702.763C662.528,702.763,512,552.235,512,552.235C512,552.235,361.472,702.805,361.472,702.805C350.379,713.856,332.288,713.856,321.237,702.805C310.144,691.712,310.144,673.621,321.237,662.571C321.237,662.571,471.765,512,471.765,512C471.765,512,321.237,361.472,321.237,361.472C310.144,350.379,310.144,332.288,321.237,321.237C326.741,315.648,334.037,312.875,341.333,312.875C348.629,312.875,355.883,315.648,361.472,321.195C361.472,321.195,512,471.765,512,471.765C512,471.765,662.528,321.237,662.528,321.237C668.117,315.648,675.371,312.875,682.667,312.875C689.963,312.875,697.216,315.648,702.805,321.195C713.856,332.245,713.856,350.336,702.805,361.429C702.805,361.429,552.235,512,552.235,512C552.235,512,552.235,512,552.235,512" /><glyph unicode="&#x0057;" d="M1023.885,725.443C1023.885,716.538,1020.438,708.667,1013.601,701.83C1013.601,701.83,535.555,223.784,535.555,223.784C528.718,216.947,520.847,213.5,511.943,213.5C503.038,213.5,495.167,216.947,488.33,223.784C488.33,223.784,10.284,701.83,10.284,701.83C3.447,708.667,0,716.538,0,725.443C0,734.347,3.447,742.218,10.284,749.055C10.284,749.055,61.587,800.358,61.587,800.358C68.424,807.195,76.294,810.642,85.199,810.642C94.104,810.642,101.975,807.195,108.811,800.358C108.811,800.358,512,397.17,512,397.17C512,397.17,915.189,800.358,915.189,800.358C922.025,807.195,929.896,810.642,938.801,810.642C947.706,810.642,955.576,807.195,962.413,800.358C962.413,800.358,1013.716,749.055,1013.716,749.055C1020.553,742.218,1024,734.347,1024,725.443C1024,725.443,1023.885,725.443,1023.885,725.443" /><glyph unicode="&#x0058;" d="M1023.885,528.443C1023.885,519.538,1020.438,511.667,1013.601,504.83C1013.601,504.83,535.555,26.784,535.555,26.784C528.718,19.947,520.847,16.5,511.943,16.5C503.038,16.5,495.167,19.947,488.33,26.784C488.33,26.784,10.284,504.83,10.284,504.83C3.447,511.667,0,519.538,0,528.443C0,537.347,3.447,545.218,10.284,552.055C10.284,552.055,61.587,603.358,61.587,603.358C68.424,610.195,76.294,613.642,85.199,613.642C94.104,613.642,101.975,610.195,108.811,603.358C108.811,603.358,512,200.17,512,200.17C512,200.17,915.189,603.358,915.189,603.358C922.025,610.195,929.896,613.642,938.801,613.642C947.706,613.642,955.576,610.195,962.413,603.358C962.413,603.358,1013.716,552.055,1013.716,552.055C1020.553,545.218,1024,537.347,1024,528.443C1024,528.443,1023.885,528.443,1023.885,528.443M1023.885,922.439C1023.885,913.534,1020.438,905.663,1013.601,898.827C1013.601,898.827,535.555,420.78,535.555,420.78C528.718,413.943,520.847,410.496,511.943,410.496C503.038,410.496,495.167,413.943,488.33,420.78C488.33,420.78,10.284,898.827,10.284,898.827C3.447,905.663,0,913.534,0,922.439C0,931.344,3.447,939.215,10.284,946.051C10.284,946.051,61.587,997.355,61.587,997.355C68.424,1004.191,76.294,1007.638,85.199,1007.638C94.104,1007.638,101.975,1004.191,108.811,997.355C108.811,997.355,512,594.166,512,594.166C512,594.166,915.189,997.355,915.189,997.355C922.025,1004.191,929.896,1007.638,938.801,1007.638C947.706,1007.638,955.576,1004.191,962.413,997.355C962.413,997.355,1013.716,946.051,1013.716,946.051C1020.553,939.215,1024,931.344,1024,922.439C1024,922.439,1023.885,922.439,1023.885,922.439" /><glyph unicode="&#x0059;" d="M70.324,774.29C54.175,790.252,28.129,790.252,12.055,774.29C-4.018,758.402,-4.018,732.542,12.055,716.617C12.055,716.617,482.852,250.472,482.852,250.472C499,234.509,525.009,234.509,541.12,250.472C541.12,250.472,1011.917,716.617,1011.917,716.617C1027.991,732.58,1028.065,758.365,1011.917,774.29C995.768,790.215,969.648,790.252,953.648,774.364C953.648,774.364,511.986,349.223,511.986,349.223C511.986,349.223,70.361,774.29,70.361,774.29C70.361,774.29,70.324,774.29,70.324,774.29" /><glyph unicode="&#x005a;" d="M1014.856,97.526C1027.048,85.334,1027.048,65.558,1014.856,53.335C1014.856,53.335,970.665,9.144,970.665,9.144C958.442,-3.048,938.666,-3.048,926.474,9.144C926.474,9.144,617.106,318.513,617.106,318.513C613.746,321.872,611.506,325.84,610.002,330.064C546.547,283.697,468.629,256.018,383.991,256.018C171.932,256.018,0,427.95,0,640.009C0,852.068,171.932,1024,383.991,1024C596.05,1024,767.982,852.068,767.982,640.009C767.982,555.371,740.303,477.453,693.936,413.998C698.16,412.494,702.128,410.286,705.487,406.894C705.487,406.894,1014.856,97.526,1014.856,97.526C1014.856,97.526,1014.856,97.526,1014.856,97.526M383.991,896.003C242.618,896.003,127.997,781.382,127.997,640.009C127.997,498.636,242.618,384.015,383.991,384.015C525.364,384.015,639.985,498.636,639.985,640.009C639.985,781.382,525.364,896.003,383.991,896.003C383.991,896.003,383.991,896.003,383.991,896.003" /><glyph unicode="&#x0061;" d="M928,704C928,704,96,704,96,704C78.304,704,64,689.696,64,672C64,672,64,384,64,384C64,366.304,78.304,352,96,352C96,352,128,352,128,352C128,352,128,32,128,32C128,14.304,142.304,0,160,0C160,0,864,0,864,0C881.696,0,896,14.304,896,32C896,32,896,352,896,352C896,352,928,352,928,352C945.696,352,960,366.304,960,384C960,384,960,672,960,672C960,689.696,945.696,704,928,704C928,704,928,704,928,704M448,96C448,78.304,433.696,64,416,64C416,64,224,64,224,64C206.304,64,192,78.304,192,96C192,96,192,352,192,352C192,369.696,206.304,384,224,384C224,384,416,384,416,384C433.696,384,448,369.696,448,352C448,352,448,96,448,96C448,96,448,96,448,96M448,480C448,462.304,433.696,448,416,448C416,448,160,448,160,448C142.304,448,128,462.304,128,480C128,480,128,608,128,608C128,625.696,142.304,640,160,640C160,640,416,640,416,640C433.696,640,448,625.696,448,608C448,608,448,480,448,480C448,480,448,480,448,480M832,96C832,78.304,817.696,64,800,64C800,64,608,64,608,64C590.304,64,576,78.304,576,96C576,96,576,352,576,352C576,369.696,590.304,384,608,384C608,384,800,384,800,384C817.696,384,832,369.696,832,352C832,352,832,96,832,96C832,96,832,96,832,96M896,480C896,462.304,881.696,448,864,448C864,448,608,448,608,448C590.304,448,576,462.304,576,480C576,480,576,608,576,608C576,625.696,590.304,640,608,640C608,640,864,640,864,640C881.696,640,896,625.696,896,608C896,608,896,480,896,480C896,480,896,480,896,480M369.888,704.032C369.888,704.032,664.288,704.032,664.288,704.032C714.752,740.224,762.464,787.328,768.128,838.656C770.88,863.712,765.504,900.416,724.128,933.088C701.184,951.232,677.888,960.416,654.976,960.416C581.952,960.416,540.64,870.88,518.304,790.88C491.616,892.864,440.096,1024,351.616,1024C325.792,1024,300.096,1012.832,275.104,990.784C225.824,947.2,220.992,901.888,225.6,871.552C235.936,803.744,304.16,745.472,369.888,704.032C369.888,704.032,369.888,704.032,369.888,704.032M654.976,883.616C662.048,883.616,671.168,879.392,681.312,871.328C697.824,858.336,696.896,850.272,696.64,847.616C693.568,819.616,641.056,775.616,579.808,739.296C597.824,816.768,627.264,883.616,654.976,883.616C654.976,883.616,654.976,883.616,654.976,883.616M321.088,931.68C329.12,938.784,340.96,947.232,351.616,947.232C391.232,947.232,431.968,843.232,455.712,742.112C380.896,781.984,303.552,838.528,296.64,883.904C295.712,890.176,293.152,906.976,321.088,931.68C321.088,931.68,321.088,931.68,321.088,931.68" /><glyph unicode="&#x0062;" d="M512.489,129.202C491.722,129.202,461.322,152.562,441.163,154.706C383.66,106.483,323.757,48.436,242.319,18.261C206.768,3.189,176.24,-5.547,168.305,3.957C157.649,16.341,141.553,33.524,138.705,38.132C138.865,44.98,147.153,39.572,156.177,49.3C205.328,69.972,237.071,123.315,258.415,188.529C104.466,265.68,0.5,410.413,0.5,576.617C0.5,823.684,229.743,1024,512.489,1024C795.236,1024,1024.479,823.716,1024.479,576.617C1024.479,329.518,795.236,129.202,512.489,129.202C512.489,129.202,512.489,129.202,512.489,129.202" /><glyph unicode="&#x0063;" d="M960,128C960,128,768,128,768,128C768,128,768,192,768,192C768,192,800,192,800,192C817.664,192,832,206.336,832,224C832,241.664,817.664,256,800,256C800,256,672,256,672,256C654.4,256,640,241.664,640,224C640,206.336,654.4,192,672,192C672,192,704,192,704,192C704,192,704,128,704,128C704,128,320,128,320,128C320,128,320,192,320,192C320,192,352,192,352,192C369.664,192,384,206.336,384,224C384,241.664,369.664,256,352,256C352,256,224,256,224,256C206.336,256,192,241.664,192,224C192,206.336,206.336,192,224,192C224,192,256,192,256,192C256,192,256,128,256,128C256,128,64,128,64,128C28.672,128,0,156.608,0,192C0,192,0,832,0,832C0,867.328,28.672,896,64,896C64,896,960,896,960,896C995.392,896,1024,867.328,1024,832C1024,832,1024,192,1024,192C1024,156.608,995.392,128,960,128C960,128,960,128,960,128M640,320C640,320,704,320,704,320C704,320,704,384,704,384C704,384,640,384,640,384C640,384,640,320,640,320C640,320,640,320,640,320M640,576C640,576,768,576,768,576C768,576,768,640,768,640C768,640,640,640,640,640C640,640,640,576,640,576C640,576,640,576,640,576M576,768C576,768,128,768,128,768C128,768,128,320,128,320C128,320,576,320,576,320C576,320,576,768,576,768C576,768,576,768,576,768M832,768C832,768,640,768,640,768C640,768,640,704,640,704C640,704,832,704,832,704C832,704,832,768,832,768C832,768,832,768,832,768M960,768C960,768,896,768,896,768C896,768,896,704,896,704C896,704,960,704,960,704C960,704,960,768,960,768C960,768,960,768,960,768M960,640C960,640,832,640,832,640C832,640,832,576,832,576C832,576,960,576,960,576C960,576,960,640,960,640C960,640,960,640,960,640M960,512C960,512,640,512,640,512C640,512,640,448,640,448C640,448,960,448,960,448C960,448,960,512,960,512C960,512,960,512,960,512M320,444.096C320,444.096,320,454.464,320,454.464C282.88,467.776,256,502.336,256,544C256,544,256,608,256,608C256,661.056,298.944,704,352,704C405.056,704,448,661.056,448,608C448,608,448,544,448,544C448,502.336,421.12,467.776,384,454.464C384,454.464,384,444.16,384,444.16C422.656,436.096,456.256,414.464,479.296,384C479.296,384,384,384,384,384C384,384,320,384,320,384C320,384,224.704,384,224.704,384C247.744,414.464,281.344,436.096,320,444.096C320,444.096,320,444.096,320,444.096" /><glyph unicode="&#x0064;" d="M896,331.776C896,331.776,896,704,896,704C896,810.048,810.048,896,704,896C704,896,203.776,896,203.776,896C230.208,970.432,300.48,1024,384,1024C384,1024,832,1024,832,1024C938.048,1024,1024,938.048,1024,832C1024,832,1024,512,1024,512C1024,428.48,970.368,358.208,896,331.776C896,331.776,896,331.776,896,331.776M832,640C832,640,832,384,832,384C832,278.016,746.048,192,640,192C640,192,448,192,448,192C448,192,320,0,320,0C320,0,192,192,192,192C85.952,192,0,278.016,0,384C0,384,0,640,0,640C0,746.048,85.952,832,192,832C192,832,640,832,640,832C746.048,832,832,746.048,832,640C832,640,832,640,832,640M128,640C128,640,128,384,128,384C128,348.608,156.608,320,192,320C192,320,234.688,320,234.688,320C234.688,320,320,192,320,192C320,192,405.312,320,405.312,320C405.312,320,640,320,640,320C675.392,320,704,348.608,704,384C704,384,704,640,704,640C704,675.328,675.392,704,640,704C640,704,192,704,192,704C156.608,704,128,675.328,128,640C128,640,128,640,128,640" /><glyph unicode="&#x0065;" d="M896,0C896,0,256,0,256,0C220.608,0,192,28.608,192,64C192,64,192,128,192,128C227.392,128,256,156.608,256,192C256,192,256,256,256,256C256,291.328,227.392,320,192,320C192,320,192,704,192,704C227.392,704,256,732.608,256,768C256,768,256,832,256,832C256,867.328,227.392,896,192,896C192,896,192,960,192,960C192,995.328,220.608,1024,256,1024C256,1024,896,1024,896,1024C931.392,1024,960,995.328,960,960C960,960,960,64,960,64C960,28.608,931.392,0,896,0C896,0,896,0,896,0M768,352C758.144,410.688,718.656,460.032,668.416,487.808C690.368,510.72,704,541.76,704,576C704,576,704,640,704,640C704,710.656,646.656,768,576,768C505.344,768,448,710.656,448,640C448,640,448,576,448,576C448,541.76,461.632,510.72,483.584,487.808C433.344,460.032,393.856,410.688,384,352C384,352,384,352,384,352C384,299.008,427.008,256,480,256C480,256,672,256,672,256C724.992,256,768,299.008,768,352C768,352,768,352,768,352C768,352,768,352,768,352M160,768C160,768,96,768,96,768C78.336,768,64,782.336,64,800C64,817.664,78.336,832,96,832C96,832,160,832,160,832C177.664,832,192,817.664,192,800C192,782.336,177.664,768,160,768C160,768,160,768,160,768M64,960C64,995.328,92.608,1024,128,1024C128,1024,128,896,128,896C128,896,64,896,64,896C64,896,64,960,64,960C64,960,64,960,64,960M128,320C128,320,64,320,64,320C64,320,64,704,64,704C64,704,128,704,128,704C128,704,128,320,128,320C128,320,128,320,128,320M96,256C96,256,160,256,160,256C177.664,256,192,241.664,192,224C192,206.336,177.664,192,160,192C160,192,96,192,96,192C78.336,192,64,206.336,64,224C64,241.664,78.336,256,96,256C96,256,96,256,96,256M128,0C92.608,0,64,28.608,64,64C64,64,64,128,64,128C64,128,128,128,128,128C128,128,128,0,128,0C128,0,128,0,128,0" /><glyph unicode="&#x0066;" d="M832,0C832,0,192,0,192,0C85.952,0,0,86.016,0,192C0,192,0,832,0,832C0,938.048,85.952,1024,192,1024C192,1024,832,1024,832,1024C938.048,1024,1024,938.048,1024,832C1024,832,1024,192,1024,192C1024,86.016,938.048,0,832,0C832,0,832,0,832,0M896,832C896,867.328,867.392,896,832,896C832,896,192,896,192,896C156.672,896,128,867.328,128,832C128,832,128,256,128,256C128,256,896,256,896,256C896,256,896,832,896,832C896,832,896,832,896,832M419.584,551.808C397.632,574.784,384,605.696,384,640C384,640,384,704,384,704C384,774.656,441.344,832,512,832C582.656,832,640,774.656,640,704C640,704,640,640,640,640C640,605.696,626.368,574.784,604.416,551.808C654.656,524.032,694.208,474.688,704,416C704,416,704,416,704,416C704,363.008,660.992,320,608,320C608,320,416,320,416,320C362.944,320,320,363.008,320,416C320,416,320,416,320,416C329.92,474.688,369.408,524.032,419.584,551.808C419.584,551.808,419.584,551.808,419.584,551.808" /><glyph unicode="&#x0067;" d="M951.214,73.143C951.214,32.695,918.519,0,878.071,0C878.071,0,146.643,0,146.643,0C106.268,0,73.5,32.695,73.5,73.143C73.5,219.429,214.885,355.913,359.415,409.893C275.959,461.458,219.786,553.033,219.786,658.286C219.786,658.286,219.786,731.429,219.786,731.429C219.786,893.001,350.785,1024,512.357,1024C673.93,1024,804.929,893.001,804.929,731.429C804.929,731.429,804.929,658.286,804.929,658.286C804.929,553.033,748.755,461.458,665.372,409.893C809.829,355.913,951.214,219.429,951.214,73.143C951.214,73.143,951.214,73.143,951.214,73.143" /><glyph unicode="&#x0068;" d="M1024,512C1024,229.23,794.77,0,512,0C229.23,0,0,229.23,0,512C0,636.635,44.837,750.555,118.857,839.314C124.489,849.701,132.315,858.734,142.08,865.28C143.726,866.999,145.189,868.937,146.871,870.619C146.907,869.778,147.273,868.974,147.346,868.133C157.915,874.057,169.911,877.714,182.857,877.714C223.232,877.714,256,844.946,256,804.571C256,779.118,243.017,756.736,223.269,743.643C224.549,742.693,225.463,741.522,226.779,740.571C176.494,677.961,146.286,598.565,146.286,512C146.286,310.016,310.016,146.286,512,146.286C713.984,146.286,877.714,310.016,877.714,512C877.714,598.565,847.506,677.961,797.221,740.571C798.537,741.522,799.488,742.693,800.731,743.643C780.983,756.736,768,779.118,768,804.571C768,844.946,800.768,877.714,841.143,877.714C854.089,877.714,866.085,874.057,876.654,868.133C876.727,868.974,877.093,869.778,877.166,870.619C878.811,868.937,880.274,866.999,881.957,865.28C891.721,858.734,899.511,849.701,905.179,839.314C979.127,750.555,1024,636.635,1024,512C1024,512,1024,512,1024,512M548.571,438.857C548.571,438.857,475.429,438.857,475.429,438.857C455.205,438.857,438.857,455.205,438.857,475.429C438.857,475.429,438.857,987.429,438.857,987.429C438.857,1007.616,455.205,1024,475.429,1024C475.429,1024,548.571,1024,548.571,1024C568.795,1024,585.143,1007.616,585.143,987.429C585.143,987.429,585.143,475.429,585.143,475.429C585.143,455.205,568.795,438.857,548.571,438.857C548.571,438.857,548.571,438.857,548.571,438.857" /><glyph unicode="&#x0069;" d="M0,0C0,0,0,96,0,96C0,239.488,180.768,293.728,419.168,315.584C366.816,348.032,325.728,439.232,304.32,512.064C304.224,512.064,304.128,512,304,512C301.824,512,256,569.312,256,640C256,702.016,251.584,753.728,288.224,765.44C288.192,766.304,288,767.136,288,768C288,846.624,328.672,915.52,389.984,955.488C405.824,995.008,454.112,1024,512,1024C569.888,1024,618.176,995.008,634.016,955.488C695.328,915.52,736,846.624,736,768C736,767.136,735.808,766.304,735.776,765.44C772.416,753.728,768,702.016,768,640C768,569.312,717.184,512,720,512C719.872,512,719.776,512.064,719.68,512.064C698.272,439.264,657.184,348.032,604.832,315.584C843.232,293.728,1024,241.504,1024,96C1024,96,1024,0,1024,0C1024,0,0,0,0,0C0,0,0,0,0,0" /><glyph unicode="&#x006a;" d="M832,0C832,0,192,0,192,0C85.952,0,0,86.016,0,192C0,192,0,832,0,832C0,938.048,85.952,1024,192,1024C192,1024,227.712,1024,227.712,1024C189.44,981.568,161.152,930.688,144.832,874.368C134.656,863.04,128,848.384,128,832C128,832,128,192,128,192C128,156.608,156.608,128,192,128C192,128,832,128,832,128C867.392,128,896,156.608,896,192C896,192,896,832,896,832C896,848.384,889.344,863.04,879.168,874.368C862.848,930.688,834.56,981.568,796.352,1024C796.352,1024,832,1024,832,1024C938.048,1024,1024,938.048,1024,832C1024,832,1024,192,1024,192C1024,86.016,938.048,0,832,0C832,0,832,0,832,0M256,768C256,909.376,370.624,1024,512,1024C653.376,1024,768,909.376,768,768C768,626.624,512,256,512,256C512,256,256,626.624,256,768C256,768,256,768,256,768M640,768C640,838.656,582.656,896,512,896C441.344,896,384,838.656,384,768C384,697.344,441.344,640,512,640C582.656,640,640,697.344,640,768C640,768,640,768,640,768" /><glyph unicode="&#x006b;" d="M910.222,1024C910.222,1024,398.222,1024,398.222,1024C335.644,1024,285.582,972.8,285.582,910.222C285.582,910.222,285.582,739.556,285.582,739.556C285.582,739.556,398.222,739.556,398.222,739.556C398.222,739.556,398.222,910.222,398.222,910.222C398.222,910.222,910.222,910.222,910.222,910.222C910.222,910.222,910.222,113.778,910.222,113.778C910.222,113.778,398.222,113.778,398.222,113.778C398.222,113.778,398.222,227.556,398.222,227.556C398.222,227.556,285.582,227.556,285.582,227.556C285.582,227.556,285.582,113.778,285.582,113.778C285.582,51.2,335.644,0,398.222,0C398.222,0,910.222,0,910.222,0C972.8,0,1024,51.2,1024,113.778C1024,113.778,1024,910.222,1024,910.222C1024,972.8,972.8,1024,910.222,1024C910.222,1024,910.222,1024,910.222,1024M512,261.689C512,261.689,739.556,483.556,739.556,483.556C739.556,483.556,512,705.422,512,705.422C512,705.422,512,568.889,512,568.889C512,568.889,0,568.889,0,568.889C0,568.889,0,398.222,0,398.222C0,398.222,512,398.222,512,398.222C512,398.222,512,261.689,512,261.689C512,261.689,512,261.689,512,261.689" /><glyph unicode="&#x006c;" d="M570.098,113.778C570.098,113.778,112.64,113.778,112.64,113.778C112.64,113.778,112.64,910.222,112.64,910.222C112.64,910.222,570.027,910.222,570.027,910.222C570.027,910.222,570.027,739.556,570.027,739.556C570.027,739.556,682.667,739.556,682.667,739.556C682.667,739.556,682.667,910.222,682.667,910.222C682.667,972.8,631.538,1024,568.889,1024C568.889,1024,113.778,1024,113.778,1024C51.2,1024,0,972.8,0,910.222C0,910.222,0,113.778,0,113.778C0,51.2,51.2,0,113.778,0C113.778,0,568.889,0,568.889,0C631.538,0,682.667,51.2,682.667,113.778C682.667,113.778,682.667,227.556,682.667,227.556C682.667,227.556,570.098,227.556,570.098,227.556C570.098,227.556,570.098,113.778,570.098,113.778C570.098,113.778,570.098,113.778,570.098,113.778M1024,483.556C1024,483.556,797.653,705.422,797.653,705.422C797.653,705.422,797.653,568.889,797.653,568.889C797.653,568.889,285.653,568.889,285.653,568.889C285.653,568.889,285.653,398.222,285.653,398.222C285.653,398.222,797.653,398.222,797.653,398.222C797.653,398.222,797.653,261.689,797.653,261.689C797.653,261.689,1024,483.556,1024,483.556C1024,483.556,1024,483.556,1024,483.556" /><glyph unicode="&#x006d;" d="M393.907,157.775C393.907,136.031,386.223,117.491,370.819,102.088C355.416,86.684,336.877,79,315.133,79C293.389,79,274.85,86.684,259.446,102.088C244.043,117.491,236.358,136.031,236.358,157.775C236.358,179.519,244.043,198.058,259.446,213.461C274.85,228.865,293.389,236.549,315.133,236.549C336.877,236.549,355.416,228.865,370.819,213.461C386.223,198.058,393.907,179.519,393.907,157.775C393.907,157.775,393.907,157.775,393.907,157.775M945.26,157.775C945.26,136.031,937.576,117.491,922.172,102.088C906.769,86.684,888.23,79,866.486,79C844.742,79,826.202,86.684,810.799,102.088C795.396,117.491,787.711,136.031,787.711,157.775C787.711,179.519,795.396,198.058,810.799,213.461C826.202,228.865,844.742,236.549,866.486,236.549C888.23,236.549,906.769,228.865,922.172,213.461C937.576,198.058,945.26,179.519,945.26,157.775C945.26,157.775,945.26,157.775,945.26,157.775M1024,827.289C1024,827.289,1024,512.225,1024,512.225C1024,502.37,1020.727,493.652,1014.145,486.071C1007.563,478.49,999.155,474.079,988.92,472.838C988.92,472.838,346.491,397.751,346.491,397.751C346.905,394.891,347.835,390.48,349.248,384.518C350.661,378.557,351.901,373.147,352.935,368.219C353.969,363.291,354.486,358.777,354.486,354.676C354.486,348.095,349.558,334.966,339.702,315.289C339.702,315.289,905.838,315.289,905.838,315.289C916.486,315.289,925.722,311.395,933.544,303.607C941.366,295.819,945.26,286.584,945.226,275.902C945.191,265.219,941.297,255.984,933.544,248.196C925.791,240.409,916.555,236.515,905.838,236.515C905.838,236.515,275.711,236.515,275.711,236.515C265.063,236.515,255.828,240.409,248.006,248.196C240.183,255.984,236.289,265.219,236.324,275.902C236.324,281.657,238.564,289.755,243.078,300.196C247.592,310.637,253.623,322.87,261.238,336.826C268.854,350.782,273.058,358.605,273.85,360.224C273.85,360.224,164.924,866.642,164.924,866.642C164.924,866.642,39.387,866.642,39.387,866.642C28.739,866.642,19.504,870.536,11.682,878.324C3.86,886.112,-0.034,895.347,0,906.029C0.035,916.712,3.929,925.947,11.682,933.735C19.435,941.523,28.671,945.416,39.387,945.416C39.387,945.416,196.902,945.416,196.902,945.416C203.484,945.416,209.308,944.073,214.442,941.419C219.576,938.766,223.677,935.561,226.744,931.874C229.811,928.187,232.499,923.156,234.739,916.781C236.979,910.406,238.529,904.995,239.356,900.481C240.183,895.967,241.32,889.937,242.733,882.321C244.146,874.705,245.077,869.502,245.49,866.642C245.49,866.642,984.51,866.642,984.51,866.642C995.158,866.642,1004.393,862.748,1012.215,854.96C1020.037,847.172,1023.931,837.937,1023.897,827.255C1023.897,827.255,1024,827.289,1024,827.289" /><glyph unicode="&#x006e;" d="M1021.248,883.2C1021.248,883.2,928,512,928,512C928,507.552,927.104,503.36,925.504,499.552C922.24,491.872,916.128,485.728,908.48,482.496C904.64,480.864,900.416,480,896,480C896,480,288,480,288,480C288,480,313.6,352,313.6,352C313.6,352,864,352,864,352C881.696,352,896,337.696,896,320C896,302.304,881.696,288,864,288C864,288,288,288,288,288C270.304,288,256,302.304,256,320C256,320,134.4,928,134.4,928C134.4,928,32,928,32,928C14.336,928,0,942.336,0,960C0,977.664,14.336,992,32,992C32,992,160,992,160,992C177.696,992,192,977.664,192,960C192,960,198.4,928,198.4,928C198.4,928,992,928,992,928C1009.696,928,1024,913.664,1024,896C1024,891.424,1022.976,887.136,1021.248,883.2C1021.248,883.2,1021.248,883.2,1021.248,883.2M275.2,544C275.2,544,384,544,384,544C384,544,384,864,384,864C384,864,211.2,864,211.2,864C211.2,864,275.2,544,275.2,544C275.2,544,275.2,544,275.2,544M576,864C576,864,416,864,416,864C416,864,416,544,416,544C416,544,576,544,576,544C576,544,576,864,576,864C576,864,576,864,576,864M768,864C768,864,608,864,608,864C608,864,608,544,608,544C608,544,768,544,768,544C768,544,768,864,768,864C768,864,768,864,768,864M800,864C800,864,800,544,800,544C800,544,872.096,544,872.096,544C872.096,544,953.152,864,953.152,864C953.152,864,800,864,800,864C800,864,800,864,800,864M352,224C405.024,224,448,180.992,448,128C448,75.008,405.024,32,352,32C298.976,32,256,75.008,256,128C256,180.992,298.976,224,352,224C352,224,352,224,352,224M352,96C369.696,96,384,110.304,384,128C384,145.696,369.696,160,352,160C334.304,160,320,145.696,320,128C320,110.304,334.304,96,352,96C352,96,352,96,352,96M800,224C853.024,224,896,180.992,896,128C896,75.008,853.024,32,800,32C746.976,32,704,75.008,704,128C704,180.992,746.976,224,800,224C800,224,800,224,800,224M800,96C817.696,96,832,110.304,832,128C832,145.696,817.696,160,800,160C782.304,160,768,145.696,768,128C768,110.304,782.304,96,800,96C800,96,800,96,800,96" /><glyph unicode="&#x006f;" d="M1011.514,866.257C1001.341,877.907,986.739,884.609,971.299,884.609C971.299,884.609,236.208,884.609,236.208,884.609C236.208,884.609,225.835,946.529,225.835,946.529C221.566,972.182,199.383,991.013,173.371,991.013C173.371,991.013,53.682,991.013,53.682,991.013C24.278,991.013,0.5,967.235,0.5,937.831C0.5,908.428,24.278,884.649,53.682,884.649C53.682,884.649,128.328,884.649,128.328,884.649C128.328,884.649,227.271,290.792,227.271,290.792C227.71,288.398,228.907,286.443,229.665,284.209C230.503,281.376,231.221,278.743,232.537,276.19C234.253,272.679,236.527,269.687,238.921,266.654C240.557,264.58,242.073,262.505,243.988,260.71C247.06,257.837,250.65,255.803,254.241,253.808C256.276,252.691,258.031,251.215,260.186,250.337C266.369,247.823,272.833,246.347,279.695,246.347C279.735,246.347,864.895,246.347,864.895,246.347C894.299,246.347,918.077,270.125,918.077,299.529C918.077,328.933,894.299,352.711,864.895,352.711C864.895,352.711,324.818,352.711,324.818,352.711C324.818,352.711,316.001,405.893,316.001,405.893C316.001,405.893,918.117,405.893,918.117,405.893C944.608,405.893,967.07,425.362,970.78,451.534C970.78,451.534,1023.962,823.887,1023.962,823.887C1026.156,839.207,1021.568,854.687,1011.514,866.297C1011.514,866.297,1011.514,866.257,1011.514,866.257M909.938,778.246C909.938,778.246,894.777,671.842,894.777,671.842C894.777,671.842,705.309,671.842,705.309,671.842C705.309,671.842,705.309,778.246,705.309,778.246C705.309,778.246,909.938,778.246,909.938,778.246C909.938,778.246,909.938,778.246,909.938,778.246M652.128,778.246C652.128,778.246,652.128,671.842,652.128,671.842C652.128,671.842,492.542,671.842,492.542,671.842C492.542,671.842,492.542,778.246,492.542,778.246C492.542,778.246,652.128,778.246,652.128,778.246C652.128,778.246,652.128,778.246,652.128,778.246M652.128,618.66C652.128,618.66,652.128,512.257,652.128,512.257C652.128,512.257,492.542,512.257,492.542,512.257C492.542,512.257,492.542,618.66,492.542,618.66C492.542,618.66,652.128,618.66,652.128,618.66C652.128,618.66,652.128,618.66,652.128,618.66M439.32,778.246C439.32,778.246,439.32,671.842,439.32,671.842C439.32,671.842,279.735,671.842,279.735,671.842C276.902,671.842,274.349,671.044,271.875,670.246C271.875,670.246,253.882,778.246,253.882,778.246C253.882,778.246,439.32,778.246,439.32,778.246C439.32,778.246,439.32,778.246,439.32,778.246M280.493,618.66C280.493,618.66,439.32,618.66,439.32,618.66C439.32,618.66,439.32,512.257,439.32,512.257C439.32,512.257,298.207,512.257,298.207,512.257C298.207,512.257,280.493,618.66,280.493,618.66C280.493,618.66,280.493,618.66,280.493,618.66M705.309,512.257C705.309,512.257,705.309,618.66,705.309,618.66C705.309,618.66,887.117,618.66,887.117,618.66C887.117,618.66,871.957,512.257,871.957,512.257C871.957,512.257,705.309,512.257,705.309,512.257C705.309,512.257,705.309,512.257,705.309,512.257M439.32,113.293C439.32,69.207,403.613,33.5,359.528,33.5C315.442,33.5,279.735,69.207,279.735,113.293C279.735,157.378,315.442,193.086,359.528,193.086C403.613,193.086,439.32,157.378,439.32,113.293C439.32,113.293,439.32,113.293,439.32,113.293M918.077,113.293C918.077,69.207,882.37,33.5,838.284,33.5C794.199,33.5,758.491,69.207,758.491,113.293C758.491,157.378,794.199,193.086,838.284,193.086C882.37,193.086,918.077,157.378,918.077,113.293C918.077,113.293,918.077,113.293,918.077,113.293" /><glyph unicode="&#x0070;" d="M896,0.032C896,0.032,896,64.032,896,64.032C896,105.376,888,141.696,872,173.024C856,204.352,833.152,229.856,803.488,249.536C773.824,269.216,740.16,284.736,702.496,296.032C664.832,307.328,622.688,314.688,576,318.048C576,318.048,576,334.048,576,334.048C629.984,356.736,675.488,402.56,712.512,471.552C749.536,540.544,768.032,612.384,768,687.04C768,755.712,744.16,807.712,696.512,843.04C648.864,878.368,587.36,896.032,512,896.032C436.64,896.032,375.136,878.368,327.488,843.04C279.84,807.712,256,755.712,256,687.04C256,614.368,275.008,543.712,312.992,475.04C350.976,406.368,396,360.032,448,336.032C448,336.032,448,318.016,448,318.016C401.312,314.688,359.168,307.36,321.504,296C283.84,284.64,250.176,269.152,220.512,249.504C190.848,229.856,168,204.352,152,172.992C136,141.632,128,105.312,128,64C128,64,128,0,128,0C92.672,0,62.496,12.512,37.504,37.504C12.512,62.496,0,92.672,0,128C0,128,0,896,0,896C0,931.328,12.512,961.504,37.504,986.496C62.496,1011.488,92.672,1024,128,1024C128,1024,896,1024,896,1024C931.328,1024,961.504,1011.488,986.496,986.496C1011.488,961.504,1024,931.328,1024,896C1024,896,1024,128,1024,128C1024,92.672,1011.488,62.496,986.496,37.504C961.504,12.512,931.328,0,896,0C896,0,896,0.032,896,0.032" /><glyph unicode="&#x0071;" d="M0,0C0,0,0,1024,0,1024C0,1024,1024,1024,1024,1024C1024,1024,1024,0,1024,0C1024,0,0,0,0,0C0,0,0,0,0,0M960,960C960,960,64,960,64,960C64,960,64,192,64,192C64,192,960,192,960,192C960,192,960,960,960,960C960,960,960,960,960,960M448,476.992C448,476.992,448,489.984,448,489.984C403.328,504.672,370.816,534.656,350.496,580C330.176,625.344,320,680.32,320,744.992C320,794.336,337.824,831.84,373.504,857.504C409.184,883.168,455.328,896,512,896C568.672,896,614.816,883.168,650.496,857.504C686.176,831.84,704,794.336,704,744.992C704,600.32,661.344,515.008,576,488.992C576,488.992,576,476.992,576,476.992C651.328,470.304,712.48,452.64,759.488,424C806.496,395.36,830.656,357.344,832,309.984C832,303.296,829.152,297.312,823.488,291.968C817.824,286.624,809.152,282.144,797.472,278.464C785.792,274.784,773.792,271.616,761.472,268.96C749.152,266.304,733.472,264.128,714.464,262.464C695.456,260.8,678.784,259.456,664.448,258.464C650.112,257.472,631.936,256.8,609.952,256.448C587.968,256.096,571.136,255.936,559.456,255.936C559.456,255.936,464.448,255.936,464.448,255.936C464.448,255.936,447.616,256.096,413.952,256.448C380.288,256.8,362.112,257.472,359.456,258.464C356.8,259.456,340.128,260.8,309.44,262.464C278.752,264.128,263.104,266.304,262.432,268.96C261.76,271.616,249.76,274.784,226.432,278.464C203.104,282.144,194.432,286.624,200.416,291.968C206.4,297.312,203.584,303.296,191.904,309.984C193.248,357.312,217.408,395.328,264.416,424C311.424,452.672,372.576,470.336,447.904,476.992C447.904,476.992,448,476.992,448,476.992" /><glyph unicode="&#x0072;" d="M1024.5,200.483C1024.5,177.506,1016.439,157.957,1000.365,141.883C1000.365,141.883,883.117,24.635,883.117,24.635C867.043,8.561,847.494,0.5,824.517,0.5C801.541,0.5,781.991,8.561,765.918,24.635C765.918,24.635,512.5,278.053,512.5,278.053C512.5,278.053,259.082,24.635,259.082,24.635C243.009,8.561,223.459,0.5,200.483,0.5C177.506,0.5,157.957,8.561,141.883,24.635C141.883,24.635,24.635,141.883,24.635,141.883C8.561,157.957,0.5,177.506,0.5,200.483C0.5,223.459,8.561,243.009,24.635,259.082C24.635,259.082,278.053,512.5,278.053,512.5C278.053,512.5,24.635,765.918,24.635,765.918C8.561,781.991,0.5,801.541,0.5,824.517C0.5,847.494,8.561,867.043,24.635,883.117C24.635,883.117,141.883,1000.365,141.883,1000.365C157.957,1016.439,177.506,1024.5,200.483,1024.5C223.459,1024.5,243.009,1016.439,259.082,1000.365C259.082,1000.365,512.5,746.947,512.5,746.947C512.5,746.947,765.918,1000.365,765.918,1000.365C781.991,1016.439,801.541,1024.5,824.517,1024.5C847.494,1024.5,867.043,1016.439,883.117,1000.365C883.117,1000.365,1000.365,883.117,1000.365,883.117C1016.439,867.043,1024.5,847.494,1024.5,824.517C1024.5,801.541,1016.439,781.991,1000.365,765.918C1000.365,765.918,746.947,512.5,746.947,512.5C746.947,512.5,1000.365,259.082,1000.365,259.082C1016.439,243.009,1024.5,223.459,1024.5,200.483C1024.5,200.483,1024.5,200.483,1024.5,200.483" /><glyph unicode="&#x0073;" d="M1011.851,825.201C1011.851,825.201,699.618,511.066,699.618,511.066C699.618,511.066,1011.851,198.799,1011.851,198.799C1024.921,185.763,1024.921,164.612,1011.851,151.542C1011.851,151.542,870.078,9.803,870.078,9.803C857.075,-3.268,835.925,-3.268,822.854,9.803C822.854,9.803,511.131,321.527,511.131,321.527C511.131,321.527,201.274,9.803,201.274,9.803C188.237,-3.268,167.087,-3.268,154.016,9.803C154.016,9.803,12.277,151.542,12.277,151.542C-0.759,164.612,-0.759,185.763,12.277,198.799C12.277,198.799,322.134,510.523,322.134,510.523C322.134,510.523,12.311,820.346,12.311,820.346C-0.725,833.382,-0.725,854.533,12.311,867.603C12.311,867.603,154.05,1009.342,154.05,1009.342C167.087,1022.413,188.237,1022.413,201.308,1009.342C201.308,1009.342,510.587,700.063,510.587,700.063C510.587,700.063,822.888,1014.197,822.888,1014.197C835.959,1027.268,857.109,1027.268,870.112,1014.197C870.112,1014.197,1011.885,872.458,1011.885,872.458C1024.887,859.388,1024.887,838.237,1011.851,825.201C1011.851,825.201,1011.851,825.201,1011.851,825.201" /></font>
</defs>
</svg>
